HIERARCHY
ROOT Root
{
	OFFSET 0.00 0.00 0.00
	CHANNELS 6 Xposition Yposition Zposition Xrotation Yrotation Zrotation
	JOINT L_Femur
	{
		OFFSET 3.93700 0.00000 0.00000
		CHANNELS 3 Xrotation Zrotation Yrotation
		JOINT L_Tibia
		{
			OFFSET 0.00000 -18.44568 0.00000
			CHANNELS 1 Xrotation
			JOINT L_Foot
			{
				OFFSET -0.00000 -15.49322 0.19672
				CHANNELS 2 Xrotation Zrotation
				JOINT L_Toe
				{
					OFFSET 0.00000 -0.82039 5.66291
					CHANNELS 1 Xrotation
					End Site
					{
						OFFSET 0.00000 0.00000 1.71250
					}
				}
			}
		}
	}
	JOINT R_Femur
	{
		OFFSET -3.93700 0.00000 0.00000
		CHANNELS 3 Xrotation Zrotation Yrotation
		JOINT R_Tibia
		{
			OFFSET -0.00000 -18.44568 -0.00000
			CHANNELS 1 Xrotation
			JOINT R_Foot
			{
				OFFSET -0.00000 -15.49322 0.19672
				CHANNELS 2 Xrotation Zrotation
				JOINT R_Toe
				{
					OFFSET 0.00000 -0.96513 5.62412
					CHANNELS 1 Xrotation
					End Site
					{
						OFFSET 0.00000 0.00000 1.44139
					}
				}
			}
		}
	}
	JOINT LowerBack
	{
		OFFSET 0.00000 0.03937 0.00000
		CHANNELS 3 Xrotation Zrotation Yrotation
		JOINT Thorax
		{
			OFFSET 0.00000 8.42896 0.00000
			CHANNELS 3 Xrotation Zrotation Yrotation
			JOINT Neck
			{
				OFFSET 0.00000 7.29157 0.00000
				CHANNELS 3 Xrotation Zrotation Yrotation
				JOINT Head
				{
					OFFSET 0.00000 4.22110 0.00000
					CHANNELS 3 Xrotation Yrotation Zrotation
					End Site
					{
						OFFSET 0.00000 4.22110 0.00000
					}
				}
			}
			JOINT L_Collar
			{
				OFFSET 0.00000 7.29157 0.00000
				CHANNELS 2 Yrotation Zrotation
				JOINT L_Humerus
				{
					OFFSET 5.90550 0.00000 0.00000
					CHANNELS 3 Xrotation Yrotation Zrotation
					JOINT L_Elbow
					{
						OFFSET 11.59585 0.00000 0.00000
						CHANNELS 2 Yrotation Xrotation
						JOINT L_Wrist
						{
							OFFSET 8.38509 0.00000 0.00000
							CHANNELS 2 Zrotation Yrotation
							JOINT LeIndexMP
							{
								OFFSET 1.09197 2.42158 -0.70498
								CHANNELS 3 Zrotation Xrotation Yrotation
								JOINT LeIndexPIP
								{
									OFFSET 0.54914 1.69807 0.00037
									CHANNELS 3 Xrotation Yrotation Zrotation
									JOINT LeIndexDIP
									{
										OFFSET 0.34223 0.98477 -0.13890
										CHANNELS 3 Xrotation Yrotation Zrotation
										End Site
										{
											OFFSET 0.30414 0.90123 -0.07454
										}
									}
								}
							}
							JOINT LeMiddleMP
							{
								OFFSET 0.20570 2.50174 -0.52444
								CHANNELS 3 Zrotation Xrotation Yrotation
								JOINT LeMiddlePIP
								{
									OFFSET -0.25811 1.79891 -0.09553
									CHANNELS 3 Xrotation Yrotation Zrotation
									JOINT LeMiddleDIP
									{
										OFFSET -0.15680 1.09225 -0.05298
										CHANNELS 3 Xrotation Yrotation Zrotation
										End Site
										{
											OFFSET -0.15297 1.06215 -0.02141
										}
									}
								}
							}
							JOINT LeRingMP
							{
								OFFSET -0.68298 2.32110 -0.37433
								CHANNELS 3 Zrotation Xrotation Yrotation
								JOINT LeRingPIP
								{
									OFFSET -0.56320 1.55045 -0.08792
									CHANNELS 3 Xrotation Yrotation Zrotation
									JOINT LeRingDIP
									{
										OFFSET -0.34522 0.95085 -0.05080
										CHANNELS 3 Xrotation Yrotation Zrotation
										End Site
										{
											OFFSET -0.35953 0.99671 -0.01102
										}
									}
								}
							}
							JOINT LePinkyMP
							{
								OFFSET -1.60546 2.01050 -0.41468
								CHANNELS 3 Zrotation Xrotation Yrotation
								JOINT LePinkyPIP
								{
									OFFSET -0.81697 0.78962 -0.37932
									CHANNELS 3 Xrotation Yrotation Zrotation
									JOINT LePinkyDIP
									{
										OFFSET -0.51445 0.51600 -0.16745
										CHANNELS 3 Xrotation Yrotation Zrotation
										End Site
										{
											OFFSET -0.66687 0.68407 -0.15932
										}
									}
								}
							}
							JOINT LeThumbCMC
							{
								OFFSET 1.32642 0.01652 -0.91353
								CHANNELS 3 Xrotation Yrotation Zrotation
								JOINT LeThumbMP
								{
									OFFSET 0.56037 -0.04452 -1.10949
									CHANNELS 3 Xrotation Yrotation Zrotation
									JOINT LeThumbIP
									{
										OFFSET 0.56894 -0.31394 -0.93677
										CHANNELS 3 Xrotation Yrotation Zrotation
										End Site
										{
											OFFSET 0.15316 0.30870 -1.10710
										}
									}
								}
							}
						}
					}
				}
			}
			JOINT R_Collar
			{
				OFFSET 0.00000 7.29157 0.00000
				CHANNELS 2 Yrotation Zrotation
				JOINT R_Humerus
				{
					OFFSET -5.90550 0.00000 0.00000
					CHANNELS 3 Xrotation Yrotation Zrotation
					JOINT R_Elbow
					{
						OFFSET -11.59585 -0.00000 0.00000
						CHANNELS 2 Yrotation Xrotation
						JOINT R_Wrist
						{
							OFFSET -8.38509 -0.00000 0.00000
							CHANNELS 2 Zrotation Yrotation
							JOINT RiIndexMP
							{
								OFFSET -1.68547 2.46874 -0.24056
								CHANNELS 3 Zrotation Xrotation Yrotation
								JOINT RiIndexPIP
								{
									OFFSET -0.10277 1.47086 -0.45732
									CHANNELS 3 Xrotation Yrotation Zrotation
									JOINT RiIndexDIP
									{
										OFFSET -0.08662 0.93830 -0.07738
										CHANNELS 3 Xrotation Yrotation Zrotation
										End Site
										{
											OFFSET -0.07343 0.79543 -0.06560
										}
									}
								}
							}
							JOINT RiMiddleMP
							{
								OFFSET -0.85407 2.65552 -0.00744
								CHANNELS 3 Zrotation Xrotation Yrotation
								JOINT RiMiddlePIP
								{
									OFFSET -0.20884 1.70284 -0.28882
									CHANNELS 3 Xrotation Yrotation Zrotation
									JOINT RiMiddleDIP
									{
										OFFSET -0.13336 1.10092 -0.23410
										CHANNELS 3 Xrotation Yrotation Zrotation
										End Site
										{
											OFFSET -0.11503 0.94711 -0.19274
										}
									}
								}
							}
							JOINT RiRingMP
							{
								OFFSET 0.20418 2.54564 0.23484
								CHANNELS 3 Zrotation Xrotation Yrotation
								JOINT RiRingPIP
								{
									OFFSET -0.04892 1.76626 -0.37155
									CHANNELS 3 Xrotation Yrotation Zrotation
									JOINT RiRingDIP
									{
										OFFSET -0.02641 0.95308 -0.21249
										CHANNELS 3 Xrotation Yrotation Zrotation
										End Site
										{
											OFFSET -0.02537 0.91606 -0.19270
										}
									}
								}
							}
							JOINT RiPinkyMP
							{
								OFFSET 0.88895 2.32064 0.25776
								CHANNELS 3 Zrotation Xrotation Yrotation
								JOINT RiPinkyPIP
								{
									OFFSET 0.43367 1.29723 -0.28031
									CHANNELS 3 Xrotation Yrotation Zrotation
									JOINT RiPinkyDIP
									{
										OFFSET 0.24248 0.73091 -0.16650
										CHANNELS 3 Xrotation Yrotation Zrotation
										End Site
										{
											OFFSET 0.26427 0.78713 -0.16490
										}
									}
								}
							}
							JOINT RiThumbCMC
							{
								OFFSET -1.27353 -0.34685 -0.51300
								CHANNELS 3 Xrotation Yrotation Zrotation
								JOINT RiThumbMP
								{
									OFFSET -0.97380 1.27673 -0.24634
									CHANNELS 3 Xrotation Yrotation Zrotation
									JOINT RiThumbIP
									{
										OFFSET -0.70681 0.85176 -0.10722
										CHANNELS 3 Xrotation Yrotation Zrotation
										End Site
										{
											OFFSET -0.60213 0.74049 -0.11612
										}
									}
								}
							}
						}
					}
				}
			}
		}
	}
}
MOTION
Frames: 10
Frame Time: 0.008333
5.5608 37.8431 -10.3793 7.4887 7.5097 2.2696 -15.8297 5.2445 8.5984 28.8904 -4.3774 -12.9979 7.8547 -14.6901 -7.6295 -25.9277 29.0208 -10.0269 14.1253 8.3253 -14.3959 -1.998 0.9198 9.7277 5.4607 0.9835 24.3761 3.4762 11.9983 -19.7825 17.1406 -12.6276 -0.5137 8.9787 -11.335 -27.1311 -76.0473 -119.9513 -36.9003 -76.6675 -90.0 26.2479 -1.4064 1.0739 5.6857 -1.7808 1.0661 -0.6682 0.2167 -0.1139 -3.0135 -1.53 -0.4644 -3.214 -0.4622 -0.066 0.6926 0.1 0.0108 -20.3493 -11.2002 -9.4606 13.479 4.7005 -1.303 -12.7448 -4.6302 0.1921 -47.8536 11.1808 -9.9081 -1.3965 -1.2901 0.3225 -0.0843 -0.0775 0.0203 66.2507 -28.4686 73.6061 19.7787 16.3885 4.3609 -47.4657 -22.7538 -25.5673 2.9455 -10.4003 -34.3723 2.8884 84.55 99.4751 -39.9284 86.1885 87.9258 -36.2647 -48.102 -36.7368 -18.6395 -1.5412 -2.0973 -12.3233 -1.0971 -1.3324 -37.2217 -53.0346 -39.9954 -38.2148 -4.1145 -2.816 13.4078 1.7638 0.2658 -29.48 -77.9725 -31.5424 -17.2836 -0.4702 -0.0481 2.5437 0.0696 -0.005 83.5654 -76.1136 89.4786 -11.9912 4.2259 3.0414 -11.5321 4.078 2.9102 174.9285 -79.2388 177.0167 -3.7657 -3.3696 -3.7669 6.4069 6.8475 6.4092 
5.5524 37.8581 -10.378 7.679 7.525 2.2437 -15.9282 5.3193 8.6694 28.7132 -4.2747 -12.9516 7.863 -14.8103 -7.6086 -25.9513 28.8857 -9.9087 14.1592 8.2555 -14.3608 -1.9289 0.9267 9.3276 5.2871 0.9392 24.4869 3.4702 12.0901 -19.9171 17.0888 -12.4664 -0.4414 8.8071 -10.5896 -26.7013 -75.4261 -119.5529 -37.638 -76.5692 -90.0 26.6717 -1.535 1.1913 4.6694 -1.4712 0.8631 -0.4825 0.1563 -0.0825 -2.5858 -1.9273 -0.5042 -4.6676 -0.6698 -0.1043 2.0086 0.2905 0.0281 -19.9651 -11.7565 -9.7929 13.4608 4.6945 -1.3005 -13.1337 -4.7713 0.1817 -47.3505 11.1061 -10.488 -1.6225 -1.5002 0.3718 -0.5526 -0.5088 0.1312 65.9886 -28.2825 72.8488 19.9483 16.5335 4.3737 -47.6187 -22.7831 -25.6667 2.9343 -10.3928 -35.3492 1.2719 84.0718 98.0807 -41.3225 86.4253 88.0608 -36.5541 -48.5436 -37.0998 -17.7218 -1.482 -1.9833 -13.0095 -1.1494 -1.4131 -37.0041 -53.2185 -39.8052 -38.4852 -4.1358 -2.8449 12.7081 1.6706 0.2622 -27.5792 -77.8226 -29.5908 -17.6691 -0.4804 -0.0508 2.5849 0.0708 -0.0051 83.7159 -76.0474 89.6331 -11.3136 4.0072 2.8482 -10.9763 3.8974 2.7529 172.9941 -78.9895 175.3455 -3.9217 -3.4995 -3.9228 6.784 7.2983 6.7865 
5.5455 37.8727 -10.3776 7.8208 7.6012 2.2294 -15.9974 5.3353 8.6692 28.5289 -4.156 -12.928 7.8877 -14.878 -7.6419 -26.0875 28.7932 -9.8202 14.1819 8.1806 -14.2629 -1.8533 0.8926 8.9362 5.095 0.8532 24.5015 3.4895 12.1027 -19.9093 17.0843 -12.3822 -0.3803 8.5969 -9.8123 -26.2405 -74.7064 -119.1752 -38.5082 -76.5772 -90.0 27.2705 -1.7725 1.4182 4.4045 -1.3899 0.8111 -0.7254 0.2353 -0.1236 -2.0288 -2.2544 -0.513 -5.0567 -0.7252 -0.1155 1.5624 0.2259 0.0227 -19.6448 -12.2505 -10.0848 13.3448 4.6557 -1.2847 -13.4741 -4.8946 0.1719 -46.8902 11.053 -11.2591 -1.5396 -1.423 0.3538 0.0785 0.0721 -0.019 65.9904 -28.2052 72.2111 20.4103 16.9287 4.4063 -47.3594 -22.7332 -25.4982 3.0183 -10.5206 -35.8722 -0.07 83.6037 96.8011 -41.9526 86.8591 88.3074 -35.4159 -48.2548 -35.8285 -20.0228 -1.627 -2.271 -12.5517 -1.1146 -1.3592 -36.5032 -53.5685 -39.3522 -38.9871 -4.1748 -2.8987 12.3957 1.629 0.2602 -27.0127 -77.7726 -29.0093 -17.2935 -0.4704 -0.0482 3.0058 0.0823 -0.0062 81.9826 -76.1045 87.9411 -11.301 4.0031 2.8446 -11.1315 3.948 2.7966 168.7847 -78.7255 171.0624 -3.5853 -3.2183 -3.5864 6.6038 7.0822 6.6062 
5.5361 37.8895 -10.3761 8.0101 7.6297 2.1739 -16.0863 5.3926 8.7123 28.3118 -4.0471 -12.8994 7.8987 -14.9297 -7.5456 -26.2279 28.4863 -9.6951 14.1147 8.1504 -14.2272 -1.7672 0.8614 8.5796 4.978 0.7829 24.5346 3.3872 12.2388 -20.0354 16.966 -12.2687 -0.3246 8.3778 -9.0165 -25.7943 -74.0046 -118.8393 -38.9845 -76.4557 -90.0 27.3229 -1.809 1.4542 3.9234 -1.2414 0.7175 -0.9258 0.3006 -0.1572 -1.9755 -2.6097 -0.571 -5.2665 -0.7551 -0.1217 1.7109 0.2474 0.0245 -19.7503 -12.5258 -10.343 13.1432 4.5884 -1.2574 -13.7037 -4.9777 0.1648 -46.9623 11.1351 -11.8875 -1.928 -1.7847 0.4373 0.0205 0.0189 -0.005 66.1041 -28.2451 72.2227 20.4136 16.9315 4.4065 -47.0761 -22.6778 -25.3143 3.0757 -10.6113 -36.4582 -0.8933 83.0383 95.5142 -42.1855 87.3483 88.508 -36.2422 -49.1649 -36.8211 -18.4518 -1.5292 -2.0739 -13.6583 -1.198 -1.49 -37.38 -54.4023 -40.4386 -37.6697 -4.0714 -2.7581 11.5232 1.5128 0.2535 -27.796 -77.6527 -29.8152 -15.8719 -0.4325 -0.0389 1.8486 0.0506 -0.0033 80.0492 -76.3136 86.0325 -11.7012 4.1326 2.9584 -10.3893 3.7047 2.5884 172.5313 -80.4404 175.2313 -4.42 -3.9099 -4.4213 7.3864 8.0301 7.3891 
5.5234 37.9056 -10.3725 8.1789 7.7043 2.1461 -16.1391 5.4025 8.7206 28.0439 -3.9164 -12.8691 7.9003 -14.985 -7.5272 -26.3506 28.2944 -9.6081 14.094 8.1518 -14.1856 -1.7087 0.832 8.2521 4.8368 0.7153 24.5301 3.3764 12.2727 -20.1311 16.9326 -12.2112 -0.2687 8.1353 -8.2826 -25.3761 -73.2195 -118.522 -39.4697 -76.3986 -90.0 27.3344 -1.6813 1.3256 3.1708 -1.0076 0.5736 -0.9876 0.3208 -0.1675 -2.1121 -2.8167 -0.622 -5.1739 -0.7419 -0.1189 1.278 0.1847 0.019 -19.8301 -12.7089 -10.5187 12.8861 4.5023 -1.223 -13.8165 -5.0185 0.1612 -46.8568 11.1636 -12.4802 -1.8944 -1.7534 0.4302 -0.1718 -0.158 0.0413 66.2644 -28.3796 72.2657 20.5673 17.0628 4.4166 -47.521 -22.7644 -25.6032 3.1002 -10.6506 -36.9762 -1.3316 82.3888 94.5693 -42.5517 87.5127 88.5964 -36.6297 -49.5225 -37.278 -18.1747 -1.5114 -2.0395 -13.3804 -1.1773 -1.457 -38.1005 -54.8578 -41.2851 -36.765 -3.9985 -2.6629 10.8646 1.4252 0.2473 -27.8959 -77.2455 -29.9208 -15.0114 -0.4095 -0.0337 1.6119 0.0442 -0.0028 78.1591 -76.3682 84.1833 -11.4527 4.0523 2.8876 -10.1923 3.6397 2.5336 173.9984 -80.7678 176.9755 -4.4726 -3.9528 -4.474 7.4585 8.1186 7.4613 
5.5086 37.9199 -10.369 8.3415 7.7738 2.1509 -16.1867 5.4121 8.7454 27.7889 -3.7844 -12.8374 7.9105 -15.0374 -7.5288 -26.4527 28.1012 -9.5496 14.061 8.1597 -14.1127 -1.662 0.7859 7.9344 4.6419 0.6259 24.4665 3.4086 12.2847 -20.2108 16.9991 -12.1901 -0.2377 7.9947 -7.4053 -24.9365 -72.475 -118.2152 -39.691 -76.4033 -90.0 27.3048 -2.1177 1.7652 3.9294 -1.2433 0.7187 -1.8448 0.6018 -0.3085 -2.149 -3.1918 -0.6935 -5.1349 -0.7363 -0.1178 1.291 0.1866 0.0192 -19.7773 -12.7655 -10.5455 12.6248 4.4146 -1.1883 -13.9484 -5.0663 0.1569 -46.7907 11.1443 -12.4889 -2.1237 -1.9673 0.4785 -0.2104 -0.1934 0.0505 66.3027 -28.6428 72.1217 20.9931 17.4265 4.4427 -47.3924 -22.7396 -25.5197 3.1181 -10.6456 -37.2775 -1.3177 81.7553 93.963 -43.0949 87.5933 88.6435 -36.2382 -49.683 -36.8655 -18.8847 -1.5567 -2.128 -12.787 -1.1325 -1.3869 -38.155 -55.2713 -41.4198 -36.5222 -3.9787 -2.6375 10.7755 1.4134 0.2463 -27.3661 -76.9611 -29.3773 -13.7264 -0.3749 -0.0267 0.553 0.0152 -0.0008 74.4328 -76.2515 80.5591 -11.6515 4.1166 2.9443 -10.6614 3.7943 2.6644 175.203 -81.8385 178.4782 -5.0864 -4.4472 -5.0879 7.7828 8.5196 7.7857 
5.4942 37.9328 -10.3654 8.5001 7.8025 2.1263 -16.25 5.4506 8.7858 27.5902 -3.6793 -12.8131 7.9156 -15.1028 -7.5046 -26.519 27.942 -9.4675 14.0077 8.0914 -14.0739 -1.6028 0.7382 7.7219 4.5078 0.5467 24.3279 3.3942 12.2901 -20.3346 16.9939 -12.1976 -0.2141 7.9019 -6.5185 -24.4664 -71.7979 -118.0252 -39.8064 -76.2901 -90.0 27.1181 -2.1067 1.7543 3.522 -1.117 0.6404 -1.674 0.5456 -0.2808 -2.251 -3.3798 -0.7392 -4.7291 -0.6786 -0.1061 0.6152 0.0889 0.0097 -19.7894 -12.7745 -10.557 12.354 4.3236 -1.1528 -13.9398 -5.0632 0.1572 -46.5067 11.077 -12.6915 -2.121 -1.9648 0.478 -0.2018 -0.1855 0.0484 66.3125 -29.0259 72.2749 21.1788 17.585 4.4532 -47.4427 -22.7493 -25.5523 3.066 -10.5621 -37.7788 -0.8776 81.0802 93.6039 -43.4691 87.5566 88.6249 -36.5103 -49.8607 -37.1783 -18.3062 -1.5199 -2.0558 -13.8692 -1.2136 -1.5151 -38.2968 -55.4957 -41.6106 -36.2611 -3.9572 -2.6104 11.0753 1.4532 0.2494 -26.9086 -76.4556 -28.9072 -13.8843 -0.3792 -0.0275 2.227 0.061 -0.0042 72.5941 -76.2418 78.7616 -11.339 4.0155 2.8554 -9.9503 3.5594 2.4666 170.1977 -80.5074 173.7502 -4.7428 -4.1718 -4.7442 7.5814 8.2701 7.5842 
5.4791 37.9447 -10.3605 8.6733 7.8424 2.1163 -16.314 5.4495 8.8175 27.3581 -3.5725 -12.7897 7.9112 -15.1757 -7.4983 -26.6177 27.7773 -9.4177 13.9565 8.0697 -14.0566 -1.5333 0.6859 7.5002 4.3528 0.4588 24.2254 3.3665 12.3469 -20.4699 17.0054 -12.1754 -0.1812 7.7009 -5.6885 -24.0074 -70.9574 -117.7855 -39.8386 -76.3574 -90.0 27.2475 -2.181 1.829 3.5267 -1.1184 0.6413 -1.5916 0.5186 -0.2673 -2.2803 -3.3242 -0.7324 -5.3669 -0.7693 -0.1247 1.3617 0.1968 0.0201 -19.6864 -12.7848 -10.5285 12.074 4.2293 -1.1166 -14.002 -5.0857 0.1551 -46.7425 11.091 -12.1003 -2.4554 -2.2773 0.547 -0.2225 -0.2045 0.0534 66.4673 -28.7457 71.9849 20.9238 17.3673 4.4386 -47.4101 -22.743 -25.5311 3.0152 -10.453 -38.0503 -0.1664 80.498 93.6186 -43.9027 87.3889 88.5225 -36.6199 -50.1436 -37.3227 -18.154 -1.5101 -2.0369 -13.5731 -1.1916 -1.4799 -38.1397 -55.5426 -41.4532 -36.4668 -3.9741 -2.6318 10.9525 1.4369 0.2482 -26.551 -76.4608 -28.5394 -13.401 -0.3662 -0.025 1.5883 0.0435 -0.0027 71.9043 -76.0197 78.114 -10.9069 3.8747 2.7333 -9.8249 3.5177 2.432 174.4344 -82.2003 177.9408 -5.4886 -4.765 -5.4902 7.9232 8.6945 7.9262 
5.4615 37.9542 -10.3556 8.8374 7.8199 2.0087 -16.3416 5.5563 8.8801 27.0741 -3.6094 -12.7418 8.2595 -15.2029 -7.3418 -26.7141 27.4927 -9.3273 13.8939 8.0615 -14.0341 -1.3725 0.6178 7.3322 4.2191 0.3522 24.0532 3.3166 12.4027 -20.5763 17.0092 -12.1681 -0.1567 7.5515 -4.8721 -23.4242 -70.2089 -117.5672 -40.0669 -76.5435 -90.0 27.2111 -2.2927 1.9412 3.6689 -1.1626 0.6685 -2.3964 0.7838 -0.3971 -2.3916 -3.6057 -0.797 -5.2357 -0.7507 -0.1208 1.1376 0.1644 0.0171 -19.7526 -12.759 -10.5314 11.748 4.1192 -1.075 -14.1453 -5.1375 0.1503 -46.5616 11.0915 -12.6652 -2.2494 -2.0847 0.5047 -0.3855 -0.3547 0.092 66.592 -28.8499 72.0357 20.9206 17.3646 4.4385 -47.1757 -22.6974 -25.3789 3.0079 -10.3967 -38.0522 0.7522 80.0681 93.8618 -43.995 87.2392 88.4413 -36.5345 -49.9566 -37.2132 -18.3115 -1.5202 -2.0565 -14.4791 -1.2581 -1.588 -37.9027 -55.4484 -41.1862 -36.7112 -3.9941 -2.6573 10.9544 1.4372 0.2482 -26.7543 -76.5834 -28.7486 -12.9669 -0.3544 -0.0228 1.6111 0.0441 -0.0028 70.3872 -76.009 76.629 -10.0809 3.6028 2.5027 -10.9627 3.8929 2.749 178.6686 -82.0301 -178.024 -4.7705 -4.1941 -4.7719 7.7873 8.5251 7.7902 
5.4425 37.9653 -10.3497 8.9714 7.8067 2.0504 -16.4025 5.5386 8.9555 26.9631 -3.414 -12.7497 7.9516 -15.2486 -7.3671 -26.7374 27.3405 -9.3027 13.86 8.02 -13.9919 -1.3469 0.5576 7.1579 4.0831 0.2661 23.9735 3.3202 12.4369 -20.7257 17.1036 -12.235 -0.1335 7.3954 -4.0952 -22.833 -69.4647 -117.3047 -40.4862 -76.8628 -90.0 27.4078 -2.5984 2.2523 3.1537 -1.0022 0.5703 -1.7829 0.5814 -0.2985 -2.2323 -4.1927 -0.8843 -4.9066 -0.7039 -0.1111 1.1506 0.1663 0.0173 -19.6507 -13.0068 -10.6936 11.7082 4.1057 -1.0699 -14.3208 -5.2009 0.1441 -46.2508 11.0544 -13.2867 -2.3992 -2.2247 0.5355 -0.3106 -0.2857 0.0743 66.5544 -28.9099 71.945 21.1561 17.5656 4.4519 -47.1358 -22.6896 -25.353 2.9369 -10.2495 -38.1127 1.9331 79.661 94.3999 -44.2442 87.1493 88.3807 -36.4473 -49.894 -37.1125 -18.4255 -1.5275 -2.0707 -14.6216 -1.2685 -1.6051 -38.3378 -55.6862 -41.6882 -35.9365 -3.9304 -2.5767 11.166 1.4653 0.2502 -27.1171 -76.2648 -29.1213 -13.3002 -0.3634 -0.0245 2.0114 0.0551 -0.0037 67.7222 -75.9557 74.0215 -10.9528 3.8897 2.7462 -10.0684 3.5986 2.4993 166.3942 -80.3975 170.3847 -5.4542 -4.7381 -5.4558 7.6133 8.3095 7.6162 
